<svg width="24" height="20" viewBox="0 0 24 20" fill="none" xmlns="http://www.w3.org/2000/svg">
<path d="M23.28 10.2613L14.28 19.2613C14.1378 19.3938 13.9498 19.4659 13.7555 19.4625C13.5612 19.459 13.3758 19.3803 13.2384 19.2429C13.101 19.1055 13.0223 18.9201 13.0188 18.7258C13.0154 18.5315 13.0875 18.3435 13.22 18.2013L20.9387 10.4813H0.75C0.551088 10.4813 0.360322 10.4023 0.21967 10.2616C0.0790175 10.121 0 9.9302 0 9.73129C0 9.53238 0.0790175 9.34161 0.21967 9.20096C0.360322 9.06031 0.551088 8.98129 0.75 8.98129H20.9387L13.22 1.26129C13.0875 1.11912 13.0154 0.93107 13.0188 0.736769C13.0223 0.542468 13.101 0.357083 13.2384 0.21967C13.3758 0.0822568 13.5612 0.00354506 13.7555 0.000116847C13.9498 -0.00331137 14.1378 0.0688116 14.28 0.201292L23.28 9.20129C23.4205 9.34192 23.4993 9.53254 23.4993 9.73129C23.4993 9.93004 23.4205 10.1207 23.28 10.2613Z" fill="black"/>
</svg>
