<svg width="26" height="26" viewBox="0 0 26 26" fill="none" xmlns="http://www.w3.org/2000/svg">
<path d="M22.3681 13.4306L15.0556 20.7431C14.9401 20.8508 14.7873 20.9094 14.6295 20.9066C14.4716 20.9038 14.321 20.8398 14.2093 20.7282C14.0977 20.6165 14.0337 20.4659 14.0309 20.308C14.0281 20.1502 14.0867 19.9974 14.1944 19.8819L20.4659 13.6094H4.0625C3.90088 13.6094 3.74589 13.5452 3.63161 13.4309C3.51733 13.3166 3.45313 13.1616 3.45312 13C3.45312 12.8384 3.51733 12.6834 3.63161 12.5691C3.74589 12.4548 3.90088 12.3906 4.0625 12.3906H20.4659L14.1944 6.11812C14.0867 6.00261 14.0281 5.84982 14.0309 5.69195C14.0337 5.53408 14.0977 5.38345 14.2093 5.2718C14.321 5.16016 14.4716 5.0962 14.6295 5.09342C14.7873 5.09063 14.9401 5.14923 15.0556 5.25687L22.3681 12.5694C22.4822 12.6836 22.5463 12.8385 22.5463 13C22.5463 13.1615 22.4822 13.3164 22.3681 13.4306Z" fill="#F8F8F8"/>
</svg>
