<svg width="18" height="18" viewBox="0 0 18 18" fill="none" xmlns="http://www.w3.org/2000/svg">
<path d="M17.5 9.5C17.5 13.8917 13.7217 17.5 9 17.5C4.27827 17.5 0.5 13.8917 0.5 9.5C0.5 5.10826 4.27827 1.5 9 1.5C13.7217 1.5 17.5 5.10826 17.5 9.5Z" stroke="#5E5E5E"/>
<path d="M4.444 8.812C4.444 7.996 4.632 7.264 5.008 6.616C5.392 5.968 5.908 5.464 6.556 5.104C7.212 4.736 7.928 4.552 8.704 4.552C9.592 4.552 10.38 4.772 11.068 5.212C11.764 5.644 12.268 6.26 12.58 7.06H10.936C10.72 6.62 10.42 6.292 10.036 6.076C9.652 5.86 9.208 5.752 8.704 5.752C8.152 5.752 7.66 5.876 7.228 6.124C6.796 6.372 6.456 6.728 6.208 7.192C5.968 7.656 5.848 8.196 5.848 8.812C5.848 9.428 5.968 9.968 6.208 10.432C6.456 10.896 6.796 11.256 7.228 11.512C7.66 11.76 8.152 11.884 8.704 11.884C9.208 11.884 9.652 11.776 10.036 11.56C10.42 11.344 10.72 11.016 10.936 10.576H12.58C12.268 11.376 11.764 11.992 11.068 12.424C10.38 12.856 9.592 13.072 8.704 13.072C7.92 13.072 7.204 12.892 6.556 12.532C5.908 12.164 5.392 11.656 5.008 11.008C4.632 10.36 4.444 9.628 4.444 8.812Z" fill="#4F4F4F"/>
</svg>
