<svg width="84" height="16" viewBox="0 0 84 16" fill="none" xmlns="http://www.w3.org/2000/svg">
<path d="M6.88333 15.4667C2.61667 15.4667 0.366667 13.95 0.383333 10.6667H3.38333C3.5 11.9833 4.58333 12.8167 6.88333 12.8333C9.05 12.8333 10.2333 12.1 10.2333 11C10.2333 10.0333 9.45 9.55 7.78333 9.26667L6.05 8.96667C3.4 8.5 0.766667 7.8 0.766667 4.75C0.766667 2.1 3 0.533333 6.91667 0.533333C10.5667 0.533333 13.1 1.81667 13.1333 5.28333H10.15C9.93333 4.01667 8.95 3.16667 6.85 3.16667C4.95 3.16667 3.95 3.81667 3.95 4.9C3.95 5.75 4.63333 6.28333 6.06667 6.55L7.58333 6.81667C10.25 7.3 13.5333 7.75 13.5333 11.1C13.5333 13.8833 11.25 15.4667 6.88333 15.4667ZM21.412 15.4667C17.0953 15.4667 14.662 13.4333 14.662 9.16667V1H18.012V9.08333C18.012 11.3167 19.1286 12.6667 21.412 12.6667C23.6953 12.6667 24.8286 11.3167 24.8286 9.08333V1H28.162V9.16667C28.162 13.4333 25.7286 15.4667 21.412 15.4667ZM35.2005 15.4667C31.8339 15.4667 29.3672 14.0667 29.4172 9.9H32.7172C32.7339 11.9 33.8672 12.6167 35.2672 12.6167C36.6339 12.6167 37.8339 11.9167 37.8339 9.46667V1H41.1672V9.31667C41.1672 13.8333 38.9005 15.4667 35.2005 15.4667ZM42.5917 15V1H54.375V3.71667H45.9083V6.78333H54.075V9.18333H45.9083V12.2667H54.375V15H42.5917ZM61.9224 15.4667C57.6557 15.4667 55.4057 13.95 55.4224 10.6667H58.4224C58.5391 11.9833 59.6224 12.8167 61.9224 12.8333C64.0891 12.8333 65.2724 12.1 65.2724 11C65.2724 10.0333 64.4891 9.55 62.8224 9.26667L61.0891 8.96667C58.4391 8.5 55.8057 7.8 55.8057 4.75C55.8057 2.1 58.0391 0.533333 61.9557 0.533333C65.6057 0.533333 68.1391 1.81667 68.1724 5.28333H65.1891C64.9724 4.01667 63.9891 3.16667 61.8891 3.16667C59.9891 3.16667 58.9891 3.81667 58.9891 4.9C58.9891 5.75 59.6724 6.28333 61.1057 6.55L62.6224 6.81667C65.2891 7.3 68.5724 7.75 68.5724 11.1C68.5724 13.8833 66.2891 15.4667 61.9224 15.4667ZM79.9677 1H83.301V15H79.9677V9.38333H73.0177V15H69.701V1H73.0177V6.61667H79.9677V1Z" fill="black"/>
</svg>
