<svg width="76" height="528" viewBox="0 0 76 528" fill="none" xmlns="http://www.w3.org/2000/svg">
<path d="M31.032 500.624V510.416H75V521.456H31.032V527.696H22.104V521.456H18.36C12.28 521.456 7.86399 519.856 5.112 516.656C2.296 513.392 0.887999 508.304 0.887999 501.392H10.008C10.008 504.72 10.648 507.056 11.928 508.4C13.144 509.744 15.288 510.416 18.36 510.416H22.104V500.624H31.032ZM48.312 494.573C43 494.573 38.296 493.485 34.2 491.309C30.104 489.069 26.936 486.061 24.696 482.285C22.392 478.445 21.24 474.221 21.24 469.613C21.24 465.453 22.072 461.837 23.736 458.765C25.336 455.629 27.352 453.133 29.784 451.277H22.104V440.237H75V451.277H67.128C69.624 453.133 71.704 455.661 73.368 458.861C75.032 462.061 75.864 465.709 75.864 469.805C75.864 474.349 74.712 478.509 72.408 482.285C70.04 486.061 66.776 489.069 62.616 491.309C58.392 493.485 53.624 494.573 48.312 494.573ZM48.504 451.277C44.856 451.277 41.688 452.045 39 453.581C36.312 455.053 34.264 457.005 32.856 459.437C31.448 461.869 30.744 464.493 30.744 467.309C30.744 470.125 31.448 472.749 32.856 475.181C34.2 477.613 36.216 479.597 38.904 481.133C41.528 482.605 44.664 483.341 48.312 483.341C51.96 483.341 55.16 482.605 57.912 481.133C60.664 479.597 62.776 477.613 64.248 475.181C65.656 472.685 66.36 470.061 66.36 467.309C66.36 464.493 65.656 461.869 64.248 459.437C62.84 457.005 60.792 455.053 58.104 453.581C55.352 452.045 52.152 451.277 48.504 451.277ZM75.864 406.662C75.864 410.822 75.128 414.566 73.656 417.894C72.12 421.158 70.072 423.75 67.512 425.67C64.888 427.59 61.976 428.614 58.776 428.742V417.414C61.016 417.222 62.904 416.166 64.44 414.246C65.912 412.262 66.648 409.798 66.648 406.854C66.648 403.782 66.072 401.414 64.92 399.75C63.704 398.022 62.168 397.158 60.312 397.158C58.328 397.158 56.856 398.118 55.896 400.038C54.936 401.894 53.88 404.87 52.728 408.966C51.64 412.934 50.584 416.166 49.56 418.662C48.536 421.158 46.968 423.334 44.856 425.19C42.744 426.982 39.96 427.878 36.504 427.878C33.688 427.878 31.128 427.046 28.824 425.382C26.456 423.718 24.6 421.35 23.256 418.278C21.912 415.142 21.24 411.558 21.24 407.526C21.24 401.51 22.776 396.678 25.848 393.03C28.856 389.318 32.984 387.334 38.232 387.078V398.022C35.864 398.214 33.976 399.174 32.568 400.902C31.16 402.63 30.456 404.966 30.456 407.91C30.456 410.79 31 412.998 32.088 414.534C33.176 416.07 34.616 416.838 36.408 416.838C37.816 416.838 39 416.326 39.96 415.302C40.92 414.278 41.688 413.03 42.264 411.558C42.776 410.086 43.448 407.91 44.28 405.03C45.304 401.19 46.36 398.054 47.448 395.622C48.472 393.126 50.008 390.982 52.056 389.19C54.104 387.398 56.824 386.47 60.216 386.406C63.224 386.406 65.912 387.238 68.28 388.902C70.648 390.566 72.504 392.934 73.848 396.006C75.192 399.014 75.864 402.566 75.864 406.662ZM21.24 347.221C21.24 343.189 22.104 339.605 23.832 336.469C25.56 333.269 28.12 330.773 31.512 328.981C34.904 327.125 39 326.197 43.8 326.197H75V337.045H45.432C40.696 337.045 37.08 338.229 34.584 340.597C32.024 342.965 30.744 346.197 30.744 350.293C30.744 354.389 32.024 357.653 34.584 360.085C37.08 362.453 40.696 363.637 45.432 363.637H75V374.581H3.96V363.637H28.248C26.008 361.781 24.28 359.445 23.064 356.629C21.848 353.749 21.24 350.613 21.24 347.221ZM15.096 306.669C15.096 308.653 14.424 310.317 13.08 311.661C11.736 313.005 10.072 313.677 8.088 313.677C6.104 313.677 4.44 313.005 3.096 311.661C1.752 310.317 1.08 308.653 1.08 306.669C1.08 304.749 1.752 303.117 3.096 301.773C4.44 300.429 6.104 299.757 8.088 299.757C10.072 299.757 11.736 300.429 13.08 301.773C14.424 303.117 15.096 304.749 15.096 306.669ZM22.104 301.293H75V312.237H22.104V301.293ZM75.864 263.981C75.864 268.973 74.744 273.485 72.504 277.517C70.2 281.549 67 284.717 62.904 287.021C58.744 289.325 53.944 290.477 48.504 290.477C43.128 290.477 38.36 289.293 34.2 286.925C30.04 284.557 26.84 281.325 24.6 277.229C22.36 273.133 21.24 268.557 21.24 263.501C21.24 258.445 22.36 253.869 24.6 249.773C26.84 245.677 30.04 242.445 34.2 240.077C38.36 237.709 43.128 236.525 48.504 236.525C53.88 236.525 58.648 237.741 62.808 240.173C66.968 242.605 70.2 245.933 72.504 250.157C74.744 254.317 75.864 258.925 75.864 263.981ZM66.36 263.981C66.36 261.165 65.688 258.541 64.344 256.109C63 253.613 60.984 251.597 58.296 250.061C55.608 248.525 52.344 247.757 48.504 247.757C44.664 247.757 41.432 248.493 38.808 249.965C36.12 251.437 34.104 253.389 32.76 255.821C31.416 258.253 30.744 260.877 30.744 263.693C30.744 266.509 31.416 269.133 32.76 271.565C34.104 273.933 36.12 275.821 38.808 277.229C41.432 278.637 44.664 279.341 48.504 279.341C54.2 279.341 58.616 277.901 61.752 275.021C64.824 272.077 66.36 268.397 66.36 263.981ZM21.24 199.018C21.24 194.858 22.104 191.146 23.832 187.882C25.56 184.554 28.12 181.962 31.512 180.106C34.904 178.25 39 177.322 43.8 177.322H75L75 188.17H45.432C40.696 188.17 37.08 189.354 34.584 191.722C32.024 194.09 30.744 197.322 30.744 201.418C30.744 205.514 32.024 208.778 34.584 211.21C37.08 213.578 40.696 214.762 45.432 214.762H75V225.706H22.104V214.762H28.152C25.976 212.97 24.28 210.698 23.064 207.946C21.848 205.13 21.24 202.154 21.24 199.018ZM15.096 157.794C15.096 159.778 14.424 161.442 13.08 162.786C11.736 164.13 10.072 164.802 8.088 164.802C6.104 164.802 4.44 164.13 3.096 162.786C1.752 161.442 1.08 159.778 1.08 157.794C1.08 155.874 1.752 154.242 3.096 152.898C4.44 151.554 6.104 150.882 8.088 150.882C10.072 150.882 11.736 151.554 13.08 152.898C14.424 154.242 15.096 155.874 15.096 157.794ZM22.104 152.418H75V163.362H22.104V152.418ZM75.864 118.85C75.864 123.01 75.128 126.754 73.656 130.082C72.12 133.346 70.072 135.938 67.512 137.858C64.888 139.778 61.976 140.802 58.776 140.93V129.602C61.016 129.41 62.904 128.354 64.44 126.434C65.912 124.45 66.648 121.986 66.648 119.042C66.648 115.97 66.072 113.602 64.92 111.938C63.704 110.21 62.168 109.346 60.312 109.346C58.328 109.346 56.856 110.306 55.896 112.226C54.936 114.082 53.88 117.058 52.728 121.154C51.64 125.122 50.584 128.354 49.56 130.85C48.536 133.346 46.968 135.522 44.856 137.378C42.744 139.17 39.96 140.066 36.504 140.066C33.688 140.066 31.128 139.234 28.824 137.57C26.456 135.906 24.6 133.538 23.256 130.466C21.912 127.33 21.24 123.746 21.24 119.714C21.24 113.698 22.776 108.866 25.848 105.218C28.856 101.506 32.984 99.522 38.232 99.266V110.21C35.864 110.402 33.976 111.362 32.568 113.09C31.16 114.818 30.456 117.154 30.456 120.098C30.456 122.978 31 125.186 32.088 126.722C33.176 128.258 34.616 129.026 36.408 129.026C37.816 129.026 39 128.514 39.96 127.49C40.92 126.466 41.688 125.218 42.264 123.746C42.776 122.274 43.448 120.098 44.28 117.218C45.304 113.378 46.36 110.242 47.448 107.81C48.472 105.314 50.008 103.17 52.056 101.378C54.104 99.586 56.824 98.658 60.216 98.594C63.224 98.594 65.912 99.426 68.28 101.09C70.648 102.754 72.504 105.122 73.848 108.194C75.192 111.202 75.864 114.754 75.864 118.85ZM31.032 74.0007H60.312C62.296 74.0007 63.736 73.5527 64.632 72.6567C65.464 71.6967 65.88 70.0967 65.88 67.8567V61.1367H75V69.7767C75 74.7047 73.848 78.4807 71.544 81.1047C69.24 83.7287 65.496 85.0407 60.312 85.0407H31.032V91.2807H22.104V85.0407H8.952V74.0007H22.104V61.1367H31.032V74.0007ZM48.312 54.698C43 54.698 38.296 53.61 34.2 51.434C30.104 49.194 26.936 46.186 24.696 42.41C22.392 38.57 21.24 34.346 21.24 29.738C21.24 25.578 22.072 21.962 23.736 18.89C25.336 15.754 27.352 13.258 29.784 11.402H22.104L22.104 0.361996H75V11.402H67.128C69.624 13.258 71.704 15.786 73.368 18.986C75.032 22.186 75.864 25.834 75.864 29.93C75.864 34.474 74.712 38.634 72.408 42.41C70.04 46.186 66.776 49.194 62.616 51.434C58.392 53.61 53.624 54.698 48.312 54.698ZM48.504 11.402C44.856 11.402 41.688 12.17 39 13.706C36.312 15.178 34.264 17.13 32.856 19.562C31.448 21.994 30.744 24.618 30.744 27.434C30.744 30.25 31.448 32.874 32.856 35.306C34.2 37.738 36.216 39.722 38.904 41.258C41.528 42.73 44.664 43.466 48.312 43.466C51.96 43.466 55.16 42.73 57.912 41.258C60.664 39.722 62.776 37.738 64.248 35.306C65.656 32.81 66.36 30.186 66.36 27.434C66.36 24.618 65.656 21.994 64.248 19.562C62.84 17.13 60.792 15.178 58.104 13.706C55.352 12.17 52.152 11.402 48.504 11.402Z" fill="black"/>
</svg>
