<svg width="488" height="73" viewBox="0 0 488 73" fill="none" xmlns="http://www.w3.org/2000/svg">
<path d="M32.04 72.24C11.56 72.24 0.76 64.96 0.84 49.2H15.24C15.8 55.52 21 59.52 32.04 59.6C42.44 59.6 48.12 56.08 48.12 50.8C48.12 46.16 44.36 43.84 36.36 42.48L28.04 41.04C15.32 38.8 2.68 35.44 2.68 20.8C2.68 8.08 13.4 0.559998 32.2 0.559998C49.72 0.559998 61.88 6.72 62.04 23.36H47.72C46.68 17.28 41.96 13.2 31.88 13.2C22.76 13.2 17.96 16.32 17.96 21.52C17.96 25.6 21.24 28.16 28.12 29.44L35.4 30.72C48.2 33.04 63.96 35.2 63.96 51.28C63.96 64.64 53 72.24 32.04 72.24ZM101.778 72.24C81.0575 72.24 69.3775 62.48 69.3775 42V2.8H85.4575V41.6C85.4575 52.32 90.8175 58.8 101.778 58.8C112.738 58.8 118.178 52.32 118.178 41.6V2.8H134.178V42C134.178 62.48 122.498 72.24 101.778 72.24ZM167.962 72.24C151.803 72.24 139.963 65.52 140.202 45.52H156.043C156.123 55.12 161.562 58.56 168.282 58.56C174.843 58.56 180.603 55.2 180.603 43.44V2.8H196.603V42.72C196.603 64.4 185.722 72.24 167.962 72.24ZM203.44 70V2.8H260V15.84H219.36V30.56H258.56V42.08H219.36V56.88H260V70H203.44ZM296.227 72.24C275.748 72.24 264.948 64.96 265.028 49.2H279.428C279.987 55.52 285.188 59.52 296.227 59.6C306.628 59.6 312.307 56.08 312.307 50.8C312.307 46.16 308.548 43.84 300.548 42.48L292.228 41.04C279.508 38.8 266.868 35.44 266.868 20.8C266.868 8.08 277.588 0.559998 296.387 0.559998C313.908 0.559998 326.068 6.72 326.228 23.36H311.907C310.868 17.28 306.148 13.2 296.068 13.2C286.948 13.2 282.148 16.32 282.148 21.52C282.148 25.6 285.428 28.16 292.308 29.44L299.587 30.72C312.387 33.04 328.148 35.2 328.148 51.28C328.148 64.64 317.188 72.24 296.227 72.24ZM382.845 2.8H398.845V70H382.845V43.04H349.485V70H333.565V2.8H349.485V29.76H382.845V2.8ZM455.509 72.24C435.029 72.24 424.229 64.96 424.309 49.2H438.709C439.269 55.52 444.469 59.52 455.509 59.6C465.909 59.6 471.589 56.08 471.589 50.8C471.589 46.16 467.829 43.84 459.829 42.48L451.509 41.04C438.789 38.8 426.149 35.44 426.149 20.8C426.149 8.08 436.869 0.559998 455.669 0.559998C473.189 0.559998 485.349 6.72 485.509 23.36H471.189C470.149 17.28 465.429 13.2 455.349 13.2C446.229 13.2 441.429 16.32 441.429 21.52C441.429 25.6 444.709 28.16 451.589 29.44L458.869 30.72C471.669 33.04 487.429 35.2 487.429 51.28C487.429 64.64 476.469 72.24 455.509 72.24Z" fill="black"/>
</svg>
